<?xml version="1.0" encoding="UTF-8"?>
<svg id="Layer_1" data-name="Layer 1" xmlns="http://www.w3.org/2000/svg" xmlns:xlink="http://www.w3.org/1999/xlink" viewBox="0 0 239.61 22.52">
  <defs>
    <style>
      .cls-1 {
        clip-path: url(#clippath);
      }

      .cls-2 {
        fill: none;
      }

      .cls-2, .cls-3 {
        stroke-width: 0px;
      }

      .cls-3 {
        fill: #231f20;
      }
    </style>
    <clipPath id="clippath">
      <rect class="cls-2" width="239.61" height="22.52"/>
    </clipPath>
  </defs>
  <g class="cls-1">
    <path class="cls-3" d="m231.82,16.97h1.95V7.32h3.9v9.66h1.95V5.54h-7.79v11.43Zm-6.76-9.87c1.49,0,2.51,1.28,2.73,3.33h-5.46c.22-2.06,1.23-3.33,2.73-3.33m.22,8.31c-1.64,0-2.77-1.34-2.97-3.46h7.47c0-4.05-1.84-6.62-4.72-6.62s-4.72,2.32-4.72,5.93,1.93,5.93,4.94,5.93c1.8,0,3.44-1.15,4.16-2.92l-1.62-.87c-.45,1.21-1.43,2.01-2.53,2.01m-12.6,1.56h5.56v-1.78h-3.62v-7.97h4.87v-1.69h-4.87V1.6h-1.95v3.94h-2.38v1.69h2.38v9.74Zm-5.87,0h1.95V5.54h-1.95v11.43Zm0-13.9h1.95V0h-1.95v3.07Zm-6.75,4.03c1.49,0,2.51,1.28,2.73,3.33h-5.46c.22-2.06,1.23-3.33,2.73-3.33m.22,8.31c-1.65,0-2.77-1.34-2.97-3.46h7.47c0-4.05-1.84-6.62-4.72-6.62s-4.72,2.32-4.72,5.93,1.93,5.93,4.94,5.93c1.8,0,3.44-1.15,4.16-2.92l-1.62-.87c-.46,1.21-1.43,2.01-2.53,2.01m-12.68,1.56h1.95V7.32h4.89v-1.77h-6.84v11.43Zm-8.38,0h5.56v-1.78h-3.62v-7.97h4.87v-1.69h-4.87V1.6h-1.95v3.94h-2.38v1.69h2.38v9.74Zm-7.53.22c2.19,0,3.57-1.17,3.57-2.99,0-3.68-5.41-3.57-5.41-5.74,0-.82.63-1.36,1.62-1.36,1.23,0,2.32.91,2.75,2.34l1.62-.87c-.8-1.99-2.51-3.25-4.37-3.25-2.16,0-3.57,1.17-3.57,2.99,0,3.55,5.41,3.44,5.41,5.74,0,.82-.63,1.36-1.62,1.36-1.19,0-2.27-.91-2.75-2.34l-1.6.87c.82,1.99,2.53,3.25,4.35,3.25m-15.96,4.24h1.88l1.6-3.25v-4.07h-1.69v3.68l-1.8,3.64Zm-8.71-4.46h1.95V7.32h3.9v9.66h1.95V5.54h-7.79v11.43Zm-6.76-9.87c1.49,0,2.51,1.28,2.73,3.33h-5.46c.22-2.06,1.23-3.33,2.73-3.33m.22,8.31c-1.65,0-2.77-1.34-2.97-3.46h7.47c0-4.05-1.84-6.62-4.72-6.62s-4.72,2.32-4.72,5.93,1.93,5.93,4.94,5.93c1.8,0,3.44-1.15,4.16-2.92l-1.62-.87c-.45,1.21-1.43,2.01-2.53,2.01m-12.6,1.56h5.56v-1.78h-3.62v-7.97h4.87v-1.69h-4.87V1.6h-1.95v3.94h-2.38v1.69h2.38v9.74Zm-5.87,0h1.95V0h-1.95v16.97Zm-6.45-1.56c-1.26,0-2.06-.93-2.06-2.38s.8-2.36,2.06-2.36,2.06.91,2.06,2.36-.8,2.38-2.06,2.38m-5.17-9.87v1.69h7.06v2.71c-.61-.61-1.43-.95-2.4-.95-2.12,0-3.49,1.58-3.49,4.05s1.36,4.16,3.49,4.16c.97,0,1.8-.35,2.4-.97v.76h1.95V5.54h-9.01Zm-7.85,11.43h5.56v-1.78h-3.61v-7.97h4.87v-1.69h-4.87V1.6h-1.95v3.94h-2.38v1.69h2.38v9.74Zm-7.53.22c2.19,0,3.57-1.17,3.57-2.99,0-3.68-5.41-3.57-5.41-5.74,0-.82.63-1.36,1.62-1.36,1.23,0,2.32.91,2.75,2.34l1.62-.87c-.8-1.99-2.51-3.25-4.37-3.25-2.17,0-3.57,1.17-3.57,2.99,0,3.55,5.41,3.44,5.41,5.74,0,.82-.63,1.36-1.62,1.36-1.19,0-2.27-.91-2.75-2.34l-1.6.87c.82,1.99,2.53,3.25,4.35,3.25m-10.44-10.09c1.49,0,2.51,1.28,2.73,3.33h-5.46c.22-2.06,1.23-3.33,2.73-3.33m.22,8.31c-1.65,0-2.77-1.34-2.97-3.46h7.47c0-4.05-1.84-6.62-4.72-6.62s-4.72,2.32-4.72,5.93,1.93,5.93,4.94,5.93c1.8,0,3.44-1.15,4.16-2.92l-1.62-.87c-.46,1.21-1.43,2.01-2.53,2.01m-11.69,0c-1.69,0-2.79-1.62-2.77-4.16.02-2.53,1.1-4.16,2.77-4.16s2.77,1.62,2.77,4.16-1.08,4.16-2.77,4.16m2.69-9.87v1.38c-.74-1.02-1.82-1.6-3.12-1.6-2.62,0-4.29,2.32-4.29,5.93s1.67,5.93,4.29,5.93c1.3,0,2.38-.58,3.12-1.6v5.24h-7.4v1.69h9.35V5.54h-1.95Zm-19.05,15.89h1.88l1.6-3.25v-4.07h-1.69v3.68l-1.8,3.64Zm-8.71-4.46h1.95V7.32h3.9v9.66h1.95V5.54h-7.79v11.43Zm-6.76-9.87c1.49,0,2.51,1.28,2.73,3.33h-5.45c.22-2.06,1.23-3.33,2.73-3.33m.22,8.31c-1.65,0-2.77-1.34-2.97-3.46h7.47c0-4.05-1.84-6.62-4.72-6.62s-4.72,2.32-4.72,5.93,1.93,5.93,4.94,5.93c1.8,0,3.44-1.15,4.16-2.92l-1.62-.87c-.45,1.21-1.43,2.01-2.53,2.01m-14.83,1.56h1.95V7.32h3.9v9.66h1.95V5.54h-7.79v11.43Zm-6.46-1.56c-1.26,0-2.06-.93-2.06-2.38s.8-2.36,2.06-2.36,2.06.91,2.06,2.36-.8,2.38-2.06,2.38m-5.17-9.87v1.69h7.06v2.71c-.61-.61-1.43-.95-2.4-.95-2.12,0-3.49,1.58-3.49,4.05s1.36,4.16,3.49,4.16c.97,0,1.8-.35,2.4-.97v.76h1.95V5.54h-9.01Zm-3.49,11.43h1.95V0h-1.95v16.97Zm-6.85-1.56c-1.69,0-2.77-1.62-2.77-4.16s1.08-4.16,2.77-4.16,2.75,1.62,2.77,4.16c.02,2.53-1.08,4.16-2.77,4.16m.43-10.09c-1.3,0-2.38.59-3.12,1.6v-1.38H0v16.97h1.95v-6.93c.74,1.02,1.82,1.6,3.12,1.6,2.62,0,4.29-2.32,4.29-5.93s-1.67-5.93-4.29-5.93"/>
  </g>
</svg>