<?xml version="1.0" encoding="UTF-8"?>
<svg id="Layer_1" data-name="Layer 1" xmlns="http://www.w3.org/2000/svg" viewBox="0 0 532.28 412.09">
  <defs>
    <style>
      .cls-1 {
        fill: #231f20;
        stroke-width: 0px;
      }
    </style>
  </defs>
  <path class="cls-1" d="m266.14,412.09c68.11,0,117.33-51.51,117.33-120.77V115.04c0-16.6,12.02-29.19,28.62-29.19s28.62,12.59,28.62,29.19v291.33h91.58V123.63c0-74.4-50.94-123.63-120.19-123.63s-120.19,49.22-120.19,123.63v176.28c0,14.89-10.87,26.33-25.75,26.33s-25.75-11.44-25.75-26.33V123.63C240.39,49.22,189.45,0,120.19,0S0,49.22,0,123.63v282.74h91.58V115.04c0-16.6,12.02-29.19,28.62-29.19s28.62,12.59,28.62,29.19v176.28c0,69.26,49.22,120.77,117.33,120.77"/>
</svg>