<?xml version="1.0" encoding="utf-8"?>
<!-- Generator: Adobe Illustrator 28.1.0, SVG Export Plug-In . SVG Version: 6.00 Build 0)  -->
<svg version="1.1" id="Layer_1" xmlns="http://www.w3.org/2000/svg" xmlns:xlink="http://www.w3.org/1999/xlink" x="0px" y="0px"
	 viewBox="0 0 366.1 442.8" style="enable-background:new 0 0 366.1 442.8;" xml:space="preserve">
<style type="text/css">
	.st0{fill:#231F20;}
</style>
<path class="st0" d="M342.2,161.7c-1.2-1.1-20.4-16.2-24.3-24c-6.4-12.7-5.2-26,4.1-37.9c10.2-13,14.9-26.3,14.5-40.9
	c-0.5-16.9-7.8-30.6-21.6-41s-30.5-13.3-51.2-9.1c-14.9,3-26.2,9.5-34.4,20c-13.7,17.5-17.4,51.7-0.6,72.6
	c10.4,13,18.8,23.8,26.5,34c10.5,14,21.6,29.4,19.3,48.6c-0.8,6.8-1.5,14.3-15.4,20.1c-2.2,0.9-26.9,9.4-34.7,14.5
	c-6.7,4.4-11.5,11.9-12.7,21.3c-1.3,9.9,1.4,19.9,7,25.5c4.5,4.5,25.9,15.5,29.1,30.3c3.7,17.1-0.7,32.1-12.7,44.6
	s-26.4,16.8-47.4,15.4c-15-1-25.8-8.2-33.1-22.2c-6.5-12.5-9.4-26.6-9-44.6c0.2-11.4,3.2-21.2,9.1-29.9c6.6-9.8,15.7-22.8,21-30.3
	c13.7-19.5,14.7-40.1,3.1-61.3c-4.8-8.8-12.5-14.4-21.3-15.4s-17,2.6-23.6,10c-5.1,5.6-10.5,11.3-15.2,16.3
	c-5.5,5.8-12,7.1-20.1,4.1c-6.6-2.5-10.4-7.5-11.4-14.9c-2.3-17.6,1.2-32.9,10.4-46.8c10.7-16,19.8-32.5,22.7-56.1
	c0.5-4-0.7-17.5-3.2-24.1C108.9,18.5,89.7,7,62.9,8.2C34.2,9.4,11.7,30.5,9.3,58.3C7.8,76.1,11.4,92.6,20.6,109
	c3.9,6.9,8.2,14.7,10,22.6c4.8,20.8,2.2,40.5-7.9,58.4c-6.5,11.6-9.5,23.6-8.7,35.7c0.5,8.5,2.2,15.6,5,21.2
	c8.6,17.2,37,25.1,44.3,26.3c9.2,1.5,31.3,7.4,38.1,21.1c3.8,7.6,10,34,12.5,56.5c1.1,9.8,1.5,19.4,3.2,29.3
	c2.3,13.4,8.4,25.7,17.7,35.6c10.2,11,27.9,17.1,45.6,17.1c8.5,0,17.1-1.4,24.8-4.4c25.6-10,40.2-28.9,44.4-58
	c1.8-12.6,5.9-20.6,21-24c5-1.1,21.6-3.1,24.2-3.5c10.3-1.5,24.5-5.1,29.3-18.8c5.5-15.9,1.8-30-10.5-39.9c-1-0.8-5.1-4.4-6.1-5.3
	c-7.6-6.5-10.2-13.2-9-24c0.6-5.8,4.9-9.3,9-11.4c3.2-1.7,16.9-8.5,21-10.8c7.7-4.2,14.1-8.6,18.1-11.6c6.3-4.7,10.6-14.4,11.2-23.3
	C358.8,183.4,356.4,172.9,342.2,161.7"/>
</svg>
