<?xml version="1.0" encoding="utf-8"?>
<!-- Generator: Adobe Illustrator 28.0.0, SVG Export Plug-In . SVG Version: 6.00 Build 0)  -->
<svg version="1.1" id="Layer_1" xmlns="http://www.w3.org/2000/svg" xmlns:xlink="http://www.w3.org/1999/xlink" x="0px" y="0px"
	 viewBox="0 0 349.1 425.8" style="enable-background:new 0 0 349.1 425.8;" xml:space="preserve">
<style type="text/css">
	.st0{clip-path:url(#SVGID_00000029747453951997115310000001711123051429683132_);fill:#231F20;}
	.st1{clip-path:url(#SVGID_00000060743768721741943200000017938529573699422889_);fill:none;stroke:#0000FF;stroke-miterlimit:10;}
	.st2{clip-path:url(#SVGID_00000060743768721741943200000017938529573699422889_);fill:none;stroke:#FF0000;stroke-miterlimit:10;}
	.st3{fill:#231F20;}
</style>
<path class="st3" d="M333.2,154.7c-1.2-1.1-20.6-16.1-24.3-24c-6.7-12.6-5.2-26,4.1-37.9c10.2-13,14.9-26.3,14.5-40.9
	c-0.5-16.9-7.8-30.6-21.6-41c-13.7-10.3-30.5-13.3-51.2-9.1c-14.9,3-26.2,9.5-34.4,20c-13.7,17.5-17.4,51.7-0.6,72.6
	c10.4,13,18.8,23.8,26.5,34c10.5,14,20.6,29.3,19.3,48.6c-1.2,6.8-1.7,14-15.4,20.1c-2.2,0.9-27.1,9.1-34.7,14.5
	c-6.9,4.1-11.5,11.9-12.7,21.3c-1.3,9.9,1.4,19.9,7,25.5c4.4,4.5,25.7,15.6,29.1,30.3c3.5,17.1-0.7,32.1-12.7,44.6
	c-11.4,11.9-26.4,16.8-47.4,15.4c-15-1-25.8-8.2-33.1-22.2c-6.5-12.5-9.4-26.6-9-44.6c0.2-11.4,3.2-21.2,9.1-29.9
	c6.6-9.8,21-30.3,21-30.3c13.6-19.5,14.7-40.1,3.1-61.3c-4.8-8.8-12.5-14.4-21.3-15.4c-8.6-1-17,2.6-23.6,10
	c-5.1,5.6-10.5,11.3-15.2,16.3c-5.5,5.7-12,7.1-20.1,4.1c-6.6-2.5-10.4-7.5-11.4-15c-2.3-17.6,33.4-30.8,48.4-43.8
	c14.6-12.6,19.4-35.4,16-59c-4-28-13.8-36.3-19-41c-22-20-42.9-16.8-69.7-15.6C25.2,2.4,2.7,23.6,0.3,51.3
	C-1.2,69.1,2.5,85.7,11.6,102c3.9,6.9,8.2,14.7,10,22.6c4.8,20.8,2.2,40.5-7.9,58.4c-6.5,11.6-9.5,23.6-8.7,35.7
	c0.5,8.5,2.5,20,14.5,25c23.3,9.7,45-13,60-18c38.7-12.9,41,12,29,63c-1.9,8.3-5.6,32.6-3.6,55.1c1.2,9.8,1.5,19.4,3.3,29.3
	c2.3,13.4,8.4,25.7,17.7,35.6c10.2,10.9,27.9,17.1,45.6,17.1c8.5,0,17.1-1.4,24.8-4.4c25.6-10,40.2-28.9,44.4-58
	c1.8-12.6,5.9-20.5,21-24c5-1.1,10.6-1.8,16.1-2.5c2.8-0.3,5.6-0.7,8.2-1.1c10.3-1.5,24.5-5.1,29.3-18.8c5.5-15.8,1.8-30-10.5-39.9
	c-1-0.8-5.1-4.4-6.1-5.3c-7.8-6.3-10-13.2-9-24c0.8-5.7,4.9-9.3,9-11.5c3.3-1.7,16.8-8.5,21-10.8c7.7-4.2,14.1-8.6,18.1-11.6
	c6.3-4.7,10.6-14.4,11.3-23.3C349.9,176.4,347.4,165.9,333.2,154.7"/>
</svg>
