<?xml version="1.0" encoding="UTF-8"?>
<svg id="Layer_1" data-name="Layer 1" xmlns="http://www.w3.org/2000/svg" viewBox="0 0 349.06 425.11">
  <defs>
    <style>
      .cls-1 {
        fill: #231f20;
        stroke-width: 0px;
      }
    </style>
  </defs>
  <path class="cls-1" d="m333.19,154.01c-1.23-1.1-20.55-16.06-24.3-23.97-6.7-12.56-5.24-26.03,4.11-37.93,10.2-12.97,14.94-26.35,14.49-40.91-.52-16.85-7.78-30.64-21.57-40.99C292.22-.07,275.72-1.4,254.68,1.06c-24.43,2.85-34.24-2.54-58.43,23.85-22,24-25.47,42.39-20.57,68.78,3.57,19.22,7.57,26.22,18.57,35.22,40.14,32.84,72.57,28.1,71.21,47.39-1.18,6.77-1.7,14-15.41,20.13-2.18.93-27.13,9.13-34.73,14.49-6.87,4.1-11.51,11.86-12.74,21.3-1.29,9.91,1.39,19.87,7.02,25.54,4.45,4.53,25.72,15.57,29.12,30.26,3.55,17.11-.72,32.1-12.68,44.58-11.37,11.87-26.42,16.77-47.39,15.42-14.97-.96-25.79-8.22-33.09-22.21-6.51-12.47-9.39-26.64-9.03-44.61.22-11.42,5-20.24,9.1-29.94s28.98-29.42,28.98-29.42c19-17,17.45-43.73,3-63-6-8-15-17-25-18-14.96-1.5-21.76,1.51-27.78,9.44-4.22,5.56-5.22,6.56-10.22,17.56-7.68,16.89-20.37,20.62-29,10-4.45-5.47-6.52-10.67-7.48-18.13-2.26-17.62,1.15-32.94,10.43-46.84,10.71-16.04,20.51-32.4,22.66-56.12.61-3.96-.73-17.53-3.17-24.14C99.92,10.59,80.65-.86,53.82.37,25.2,1.69,2.7,22.83.33,50.62c-1.52,17.75,2.17,34.32,11.27,50.65,3.85,6.91,8.22,14.74,10.05,22.64,4.81,20.84,2.16,40.47-7.88,58.35-6.54,11.64-9.13,23.62-8.71,35.68.63,17.9,6.8,24.7,12.63,26.9,37,14,39-36,62-16s-24.85,71.11-3,87c11,8,26.18,4.73,28.27,27.22,1.22,9.75,1.54,19.44,3.25,29.32,2.32,13.37,8.43,25.68,17.68,35.63,10.19,10.95,27.89,17.1,45.61,17.1,8.53,0,17.06-1.42,24.76-4.41,25.64-9.98,40.16-28.94,44.4-57.97,1.84-12.59-1.84-20.15,12.03-20.88,19-1,19,10,32,16s27-1,32-6c10.12-10.12-5.75-25.33-1-39,5.52-15.85,1.28-26.44-10.98-36.35-1.03-.83-5.06-4.45-6.14-5.32-7.78-6.34-9.97-13.21-9.05-24.01.82-5.73,4.92-9.31,9-11.45,3.25-1.71,16.85-8.49,21-10.76,7.7-4.21,14.08-8.57,18.06-11.56,6.26-4.7,10.6-14.37,11.25-23.29,1.06-14.42-1.41-24.9-15.65-36.09"/>
</svg>